<svg width="19" height="15" viewBox="0 0 19 15" fill="none" xmlns="http://www.w3.org/2000/svg">
<path d="M18.6289 5.46289C18.7773 5.35156 19 5.46289 19 5.64844V13.2188C19 14.2207 18.1836 15 17.2188 15H1.78125C0.779297 15 0 14.2207 0 13.2188V5.64844C0 5.46289 0.185547 5.35156 0.333984 5.46289C1.1875 6.13086 2.26367 6.94727 6.04883 9.69336C6.82812 10.25 8.16406 11.4746 9.5 11.4746C10.7988 11.4746 12.1719 10.25 12.9141 9.69336C16.6992 6.94727 17.7754 6.13086 18.6289 5.46289ZM9.5 10.25C8.60938 10.2871 7.38477 9.17383 6.75391 8.72852C1.81836 5.16602 1.44727 4.83203 0.333984 3.94141C0.111328 3.79297 0 3.5332 0 3.23633V2.53125C0 1.56641 0.779297 0.75 1.78125 0.75H17.2188C18.1836 0.75 19 1.56641 19 2.53125V3.23633C19 3.5332 18.8516 3.79297 18.6289 3.94141C17.5156 4.83203 17.1445 5.16602 12.209 8.72852C11.5781 9.17383 10.3535 10.2871 9.5 10.25Z" fill="#FF9000"/>
</svg>
