<svg width="17" height="18" viewBox="0 0 17 18" fill="none" xmlns="http://www.w3.org/2000/svg">
<path d="M16.502 12.1445C16.7676 12.2773 16.9668 12.5762 16.9668 12.9082C16.9668 12.9414 16.9668 13.0078 16.9668 13.0742L16.1699 16.5273C16.0703 16.8926 15.7715 17.125 15.4062 17.125C6.87305 17.125 0 10.252 0 1.71875C0 1.35352 0.232422 1.05469 0.597656 0.955078L4.05078 0.158203C4.11719 0.158203 4.18359 0.125 4.2168 0.125C4.54883 0.125 4.84766 0.324219 4.98047 0.623047L6.57422 4.3418C6.60742 4.44141 6.64062 4.54102 6.64062 4.64062C6.64062 4.90625 6.50781 5.13867 6.3418 5.27148L4.31641 6.93164C5.54492 9.52148 7.60352 11.5801 10.1934 12.8086L11.8535 10.7832C11.9863 10.6172 12.2188 10.4844 12.4512 10.4844C12.584 10.4844 12.6836 10.5176 12.7832 10.5508L16.502 12.1445Z" fill="#FF9000"/>
</svg>
