<svg width="24" height="25" viewBox="0 0 24 25" fill="none" xmlns="http://www.w3.org/2000/svg">
<path d="M19 9.5H18V6.5C18 5.4 17.1 4.5 16 4.5H10C8.9 4.5 8 5.4 8 6.5V20.5H20C21.1 20.5 22 19.6 22 18.5V12.5C22 10.84 20.66 9.5 19 9.5ZM10 6.5H16V9.5H10V6.5ZM14 17.5H10V12.5H14V17.5ZM16 17.5C15.45 17.5 15 17.05 15 16.5C15 15.95 15.45 15.5 16 15.5C16.55 15.5 17 15.95 17 16.5C17 17.05 16.55 17.5 16 17.5ZM16 14.5C15.45 14.5 15 14.05 15 13.5C15 12.95 15.45 12.5 16 12.5C16.55 12.5 17 12.95 17 13.5C17 14.05 16.55 14.5 16 14.5ZM19 17.5C18.45 17.5 18 17.05 18 16.5C18 15.95 18.45 15.5 19 15.5C19.55 15.5 20 15.95 20 16.5C20 17.05 19.55 17.5 19 17.5ZM19 14.5C18.45 14.5 18 14.05 18 13.5C18 12.95 18.45 12.5 19 12.5C19.55 12.5 20 12.95 20 13.5C20 14.05 19.55 14.5 19 14.5ZM4.5 8.5C3.83696 8.5 3.20107 8.76339 2.73223 9.23223C2.26339 9.70107 2 10.337 2 11V19C2 19.663 2.26339 20.2989 2.73223 20.7678C3.20107 21.2366 3.83696 21.5 4.5 21.5C5.16304 21.5 5.79893 21.2366 6.26777 20.7678C6.73661 20.2989 7 19.663 7 19V11C7 10.6717 6.93534 10.3466 6.8097 10.0433C6.68406 9.73998 6.49991 9.46438 6.26777 9.23223C6.03562 9.00009 5.76002 8.81594 5.45671 8.6903C5.15339 8.56466 4.8283 8.5 4.5 8.5Z" fill="#FF8C4D"/>
</svg>
