<svg width="344" height="480" viewBox="0 0 344 480" fill="none" xmlns="http://www.w3.org/2000/svg">
<path opacity="0.3" d="M172 242.5H172.003C190.826 242.479 208.873 234.993 222.183 221.683C235.493 208.373 242.979 190.326 243 171.503V171.5C243 157.458 238.836 143.73 231.034 132.055C223.233 120.379 212.144 111.278 199.171 105.905C186.197 100.531 171.921 99.1247 158.149 101.864C144.376 104.604 131.725 111.366 121.795 121.295C111.866 131.225 105.104 143.876 102.364 157.649C99.6247 171.421 101.031 185.697 106.405 198.671C111.778 211.644 120.879 222.733 132.555 230.534C144.23 238.336 157.958 242.5 172 242.5ZM172 476.002C171.982 475.982 171.964 475.962 171.947 475.941C170.699 474.536 168.867 472.454 166.533 469.754C161.866 464.352 155.193 456.479 147.184 446.601C131.164 426.843 109.807 399.079 88.4551 367.051C67.0988 335.016 45.7766 298.76 29.8005 262.015C13.8133 225.244 3.25 188.143 3.25 154.375C3.25 70.9177 78.5858 2.75 172 2.75C265.414 2.75 340.75 70.9177 340.75 154.375C340.75 188.143 330.187 225.244 314.2 262.015C298.223 298.76 276.901 335.016 255.545 367.051C234.193 399.079 212.836 426.843 196.816 446.601C188.807 456.479 182.134 464.352 177.467 469.754C175.133 472.454 173.301 474.536 172.053 475.941C172.036 475.962 172.018 475.982 172 476.002Z" stroke="#FF8C4D" stroke-width="5"/>
</svg>
