<svg width="19" height="15" fill="none" xmlns="http://www.w3.org/2000/svg"><path d="M18.629 5.463c.148-.111.371 0 .371.185v7.57A1.782 1.782 0 0117.219 15H1.78A1.758 1.758 0 010 13.219v-7.57c0-.186.186-.297.334-.186.853.668 1.93 1.484 5.715 4.23.78.557 2.115 1.782 3.451 1.782 1.299 0 2.672-1.225 3.414-1.782 3.785-2.746 4.861-3.562 5.715-4.23zM9.5 10.25c-.89.037-2.115-1.076-2.746-1.521C1.818 5.166 1.447 4.832.334 3.94.111 3.793 0 3.533 0 3.236v-.705C0 1.566.78.75 1.781.75H17.22c.964 0 1.78.816 1.78 1.781v.705a.844.844 0 01-.371.705c-1.113.891-1.485 1.225-6.42 4.788-.63.445-1.855 1.558-2.709 1.521z" fill="#FF9000"/></svg>