<svg width="24" height="25" fill="none" xmlns="http://www.w3.org/2000/svg"><path d="M19 9.5h-1v-3c0-1.1-.9-2-2-2h-6c-1.1 0-2 .9-2 2v14h12c1.1 0 2-.9 2-2v-6c0-1.66-1.34-3-3-3zm-9-3h6v3h-6v-3zm4 11h-4v-5h4v5zm2 0c-.55 0-1-.45-1-1s.45-1 1-1 1 .45 1 1-.45 1-1 1zm0-3c-.55 0-1-.45-1-1s.45-1 1-1 1 .45 1 1-.45 1-1 1zm3 3c-.55 0-1-.45-1-1s.45-1 1-1 1 .45 1 1-.45 1-1 1zm0-3c-.55 0-1-.45-1-1s.45-1 1-1 1 .45 1 1-.45 1-1 1zm-14.5-6A2.5 2.5 0 002 11v8a2.5 2.5 0 005 0v-8a2.5 2.5 0 00-2.5-2.5z" fill="#FF8C4D"/></svg>