<svg width="26" height="27" fill="none" xmlns="http://www.w3.org/2000/svg"><g clip-path="url(#clip0_411_1537)"><path d="M12 .5C6.412.5 1.248 3.977 2.219 12.25c-.173.138-.34.286-.469.469-.503.71-.75 1.633-.75 2.625 0 1.245.734 2.203 1.5 2.906.56.515 1.133.874 1.781 1.063.51 1.64 1.449 3 2.563 3.937a.999.999 0 101.281-1.531c-1.006-.847-1.847-1.978-2.156-3.438A1 1 0 005 17.5c.123 0-.646-.25-1.156-.719-.51-.469-.844-1.055-.844-1.437 0-.464.111-.852.25-1.156A1 1 0 005 13.5v-.844a1.002 1.002 0 000-.094c.04-.713.134-1.369.281-1.968C6.66 10.12 7.808 10.889 9 7.375c1.74 5.173 6.246 2.214 9.344 2.063.364.885.59 1.925.656 3.124a.982.982 0 000 .094v.844a1 1 0 001 1v2.469c-.434.341-.915.531-1 .531a1 1 0 00-.969.781c-.204.966-.658 1.779-1.218 2.469a1.012 1.012 0 00.88 1.646 1.01 1.01 0 00.682-.365c.6-.739.998-1.706 1.313-2.718a4.201 4.201 0 001.625-.813H22c-.245 1.281-.696 2.248-1.156 2.938-.65.975-1.21 1.316-1.25 1.343-.029.015-.384.21-1.407.438-.78.173-1.903.358-3.406.437-.201-1.115-1.369-1.968-2.781-1.968-1.554 0-2.813 1.035-2.813 2.312s1.26 2.313 2.813 2.313c.971 0 1.838-.416 2.344-1.032 1.85-.074 3.256-.286 4.219-.5 1.186-.263 1.78-.562 1.78-.562.033-.02.065-.04.095-.063 0 0 .892-.605 1.718-1.843.668-1.002 1.33-2.455 1.563-4.375.728-.545 1.187-1.436 1.187-2.438v-2c0-1.657-1.25-3-2.906-3h-.156c.004-6.998-4.67-10-9.844-10zm8.656 9.875c.03.042.065.08.094.125h-.094c-.008-.041.009-.084 0-.125zM8 12.5a2 2 0 100 4 2 2 0 000-4zm8 0a2 2 0 100 4 2 2 0 000-4z" fill="#FF9000"/></g><defs><clipPath id="clip0_411_1537"><path fill="#fff" transform="translate(0 .5)" d="M0 0h26v26H0z"/></clipPath></defs></svg>