<svg width="24" height="25" fill="none" xmlns="http://www.w3.org/2000/svg"><path d="M3.16 4.969A6.5 6.5 0 0112 4.641a6.5 6.5 0 019.178 9.154l-7.765 7.79a2 2 0 01-2.719.102l-.11-.101-7.764-7.791a6.5 6.5 0 01.34-8.826zm1.414 1.414a4.5 4.5 0 00-.146 6.21l.146.154L12 20.172l5.303-5.305-3.535-3.534-1.06 1.06a3 3 0 01-4.244-4.242l2.102-2.103a4.5 4.5 0 00-5.837.189l-.154.146zm8.486 2.828a1 1 0 011.414 0l4.242 4.242.708-.706a4.5 4.5 0 00-6.21-6.51l-.154.146-3.182 3.182a1 1 0 00-.078 1.327l.078.087a1 1 0 001.327.078l.087-.078 1.768-1.768z" fill="#FF9000"/></svg>