<svg width="24" height="25" viewBox="0 0 24 25" fill="none" xmlns="http://www.w3.org/2000/svg">
<path d="M3.16007 4.96898C4.32013 3.80871 5.87607 3.13007 7.51566 3.06923C9.15526 3.0084 10.7572 3.56987 12.0001 4.64098C13.2418 3.57165 14.8417 3.01081 16.4793 3.07074C18.1169 3.13067 19.6715 3.80695 20.8317 4.96419C21.992 6.12142 22.6724 7.67421 22.7366 9.31167C22.8008 10.9491 22.2441 12.5504 21.1781 13.795L13.4131 21.585C13.0563 21.9419 12.5778 22.1507 12.0736 22.1696C11.5693 22.1885 11.0766 22.0161 10.6941 21.687L10.5841 21.586L2.82007 13.795C1.75456 12.5515 1.19765 10.9517 1.26068 9.31536C1.32372 7.67904 2.00205 6.1268 3.16007 4.96898ZM4.57407 6.38298C3.75631 7.20097 3.28492 8.30242 3.25773 9.45875C3.23055 10.6151 3.64965 11.7375 4.42807 12.593L4.57407 12.747L11.9991 20.172L17.3021 14.867L13.7671 11.333L12.7071 12.393C12.1445 12.9558 11.3815 13.272 10.5858 13.2722C9.79006 13.2724 9.02686 12.9565 8.46407 12.394C7.90128 11.8315 7.585 11.0684 7.58481 10.2727C7.58462 9.47697 7.90054 8.71377 8.46307 8.15098L10.5651 6.04798C9.72862 5.38016 8.68152 5.03236 7.61174 5.06699C6.54196 5.10163 5.51956 5.51645 4.72807 6.23698L4.57407 6.38298ZM13.0601 9.21098C13.2476 9.02351 13.5019 8.9182 13.7671 8.9182C14.0322 8.9182 14.2865 9.02351 14.4741 9.21098L18.7161 13.453L19.4241 12.747C20.2555 11.9161 20.7289 10.7929 20.7429 9.61754C20.7569 8.44219 20.3105 7.308 19.4991 6.45754C18.6877 5.60707 17.5757 5.10785 16.401 5.06663C15.2263 5.02542 14.0821 5.44548 13.2131 6.23698L13.0601 6.38298L9.87807 9.56498C9.70474 9.7382 9.60104 9.96902 9.58666 10.2136C9.57228 10.4583 9.64822 10.6997 9.80007 10.892L9.87807 10.979C10.0513 11.1523 10.2821 11.256 10.5267 11.2704C10.7714 11.2848 11.0127 11.2088 11.2051 11.057L11.2921 10.979L13.0601 9.21098Z" fill="#FF9000"/>
</svg>
