<svg width="344" height="480" fill="none" xmlns="http://www.w3.org/2000/svg"><path opacity=".3" d="M172 242.5h.003A71.077 71.077 0 00243 171.503v-.003a70.994 70.994 0 00-11.966-39.445 71.002 71.002 0 00-128.67 25.594A71.002 71.002 0 00172 242.5zm0 233.502a973.223 973.223 0 01-24.816-29.401c-16.02-19.758-37.377-47.522-58.729-79.55C67.1 335.016 45.777 298.76 29.801 262.015 13.813 225.244 3.25 188.143 3.25 154.375 3.25 70.918 78.586 2.75 172 2.75s168.75 68.168 168.75 151.625c0 33.768-10.563 70.869-26.55 107.64-15.977 36.745-37.299 73.001-58.655 105.036-21.352 32.028-42.709 59.792-58.729 79.55a973.223 973.223 0 01-19.349 23.153 619.174 619.174 0 01-5.467 6.248z" stroke="#FF8C4D" stroke-width="5"/></svg>