<svg width="25" height="20" viewBox="0 0 25 20" fill="none" xmlns="http://www.w3.org/2000/svg">
<path d="M13.9635 0.513966C13.8237 0.653942 13.7451 0.843687 13.7451 1.04152C13.7451 1.23935 13.8237 1.4291 13.9635 1.56907L21.6466 9.25341L1.55107 9.25341C1.35307 9.25341 1.16319 9.33206 1.02319 9.47206C0.883183 9.61206 0.804531 9.80195 0.804531 9.99994C0.804531 10.1979 0.883183 10.3878 1.02319 10.5278C1.16319 10.6678 1.35307 10.7465 1.55107 10.7465L21.6466 10.7465L13.9635 18.4308C13.8316 18.5723 13.7598 18.7595 13.7632 18.9529C13.7666 19.1463 13.845 19.3308 13.9818 19.4676C14.1185 19.6044 14.3031 19.6828 14.4965 19.6862C14.6899 19.6896 14.877 19.6178 15.0186 19.4859L23.977 10.5275C24.1168 10.3875 24.1953 10.1978 24.1953 9.99994C24.1953 9.80211 24.1168 9.61237 23.977 9.47239L15.0186 0.513966C14.8786 0.374165 14.6888 0.295641 14.491 0.295641C14.2932 0.295641 14.1034 0.374165 13.9635 0.513966Z" fill="white"/>
</svg>
